<svg width="233" height="65" viewBox="0 0 233 65" fill="none" xmlns="http://www.w3.org/2000/svg">
<path d="M88.1548 53.9135C87.8019 54.2243 87.2766 54.3796 86.5872 54.3796H85.2165V57.1764H84.8062V50.7979H86.5872C87.293 50.7979 87.8183 50.9614 88.163 51.2803C88.5077 51.6074 88.6801 52.0408 88.6801 52.5887C88.6801 53.1366 88.5077 53.5864 88.1548 53.9053V53.9135ZM88.2697 52.5969C88.2697 52.1308 88.1384 51.7792 87.8675 51.5338C87.5967 51.2885 87.1699 51.1658 86.579 51.1658H85.2083V54.0198H86.579C87.7034 54.0198 88.2697 53.5455 88.2697 52.6051V52.5969Z" fill="#717171"/>
<path d="M90.8385 52.4332C91.1503 52.2451 91.5443 52.147 92.0203 52.147V52.5722H91.8808C91.3966 52.5722 90.9944 52.7112 90.6661 52.9893C90.3378 53.2673 90.1819 53.7171 90.1819 54.3386V57.1844H89.7715V52.2533H90.1819V53.2673C90.305 52.9075 90.5184 52.6295 90.8303 52.4332H90.8385Z" fill="#717171"/>
<path d="M93.908 56.939C93.5386 56.7346 93.2432 56.4402 93.038 56.0559C92.8246 55.6715 92.7261 55.2217 92.7261 54.7066C92.7261 54.1914 92.8328 53.7498 93.0462 53.3654C93.2596 52.9811 93.555 52.6867 93.9244 52.4823C94.3019 52.2778 94.7123 52.1797 95.1801 52.1797C95.6479 52.1797 96.0583 52.2778 96.4277 52.4823C96.797 52.6867 97.0925 52.9811 97.2976 53.3573C97.5028 53.7334 97.6095 54.1832 97.6095 54.6984C97.6095 55.2136 97.5028 55.6633 97.2894 56.0477C97.0761 56.432 96.7806 56.7264 96.4112 56.9309C96.0419 57.1353 95.6233 57.2416 95.1555 57.2416C94.6877 57.2416 94.2773 57.1353 93.908 56.9309V56.939ZM96.165 56.6446C96.4769 56.4811 96.7313 56.2439 96.9201 55.9168C97.1089 55.5897 97.1992 55.189 97.1992 54.7066C97.1992 54.2241 97.1089 53.8316 96.9201 53.5045C96.7313 53.1774 96.4851 52.932 96.1732 52.7767C95.8613 52.6213 95.5248 52.5395 95.1719 52.5395C94.819 52.5395 94.4825 52.6213 94.1706 52.7767C93.8587 52.932 93.6125 53.1774 93.4237 53.5045C93.2349 53.8316 93.1447 54.2323 93.1447 54.7066C93.1447 55.1809 93.2349 55.5897 93.4237 55.9168C93.6125 56.2439 93.8587 56.4893 94.1624 56.6446C94.4661 56.8082 94.8026 56.8818 95.1637 56.8818C95.5248 56.8818 95.8613 56.8 96.1732 56.6446H96.165Z" fill="#717171"/>
<path d="M100.031 52.564C100.4 52.3105 100.844 52.1797 101.369 52.1797C101.829 52.1797 102.239 52.286 102.608 52.4904C102.969 52.6949 103.248 52.9893 103.454 53.3736C103.659 53.758 103.757 54.1995 103.757 54.7066C103.757 55.2136 103.659 55.6633 103.454 56.0477C103.248 56.432 102.969 56.7264 102.608 56.939C102.247 57.1435 101.837 57.2498 101.369 57.2498C100.852 57.2498 100.409 57.1189 100.039 56.8654C99.67 56.6038 99.4155 56.2848 99.2678 55.8923V59.5068H98.8574V52.2451H99.2678V53.5453C99.4073 53.1446 99.6618 52.8175 100.031 52.564ZM103.076 53.5453C102.904 53.2182 102.666 52.9647 102.362 52.793C102.058 52.6213 101.697 52.5313 101.303 52.5313C100.909 52.5313 100.573 52.6213 100.261 52.8012C99.949 52.9811 99.711 53.2346 99.5304 53.5617C99.3499 53.8888 99.2678 54.2731 99.2678 54.6984C99.2678 55.1236 99.3581 55.5161 99.5304 55.8514C99.7028 56.1785 99.949 56.432 100.261 56.6119C100.573 56.7918 100.918 56.8818 101.303 56.8818C101.689 56.8818 102.058 56.7918 102.362 56.6201C102.666 56.4484 102.904 56.1949 103.076 55.8678C103.248 55.5407 103.331 55.1563 103.331 54.7066C103.331 54.2568 103.248 53.8724 103.076 53.5453Z" fill="#717171"/>
<path d="M109.436 54.8702H105.16C105.169 55.3118 105.267 55.688 105.456 55.9906C105.645 56.2931 105.874 56.5221 106.178 56.6693C106.474 56.8247 106.802 56.8983 107.155 56.8983C107.639 56.8983 108.049 56.7756 108.378 56.5385C108.706 56.3013 108.911 55.9742 109.001 55.5653H109.428C109.33 56.0723 109.084 56.473 108.681 56.7838C108.279 57.0945 107.77 57.2499 107.155 57.2499C106.695 57.2499 106.277 57.1436 105.915 56.9392C105.554 56.7347 105.267 56.4403 105.062 56.056C104.857 55.6716 104.75 55.2219 104.75 54.7067C104.75 54.1915 104.848 53.7417 105.054 53.3656C105.259 52.9812 105.538 52.695 105.907 52.4906C106.277 52.2861 106.687 52.188 107.155 52.188C107.623 52.188 108.041 52.2861 108.394 52.4906C108.747 52.695 109.01 52.9649 109.19 53.3001C109.371 53.6354 109.461 53.9952 109.461 54.3878C109.461 54.6086 109.461 54.7721 109.445 54.8784L109.436 54.8702ZM108.813 53.4228C108.64 53.1202 108.402 52.8913 108.107 52.7441C107.811 52.5969 107.483 52.5233 107.138 52.5233C106.794 52.5233 106.474 52.5969 106.178 52.7441C105.883 52.8913 105.645 53.1202 105.456 53.4228C105.267 53.7254 105.169 54.0934 105.16 54.535H109.043C109.059 54.1015 108.985 53.7254 108.813 53.4228Z" fill="#717171"/>
<path d="M111.751 52.4332C112.063 52.2451 112.457 52.147 112.933 52.147V52.5722H112.793C112.309 52.5722 111.907 52.7112 111.579 52.9893C111.25 53.2673 111.094 53.7171 111.094 54.3386V57.1844H110.684V52.2533H111.094V53.2673C111.218 52.9075 111.431 52.6295 111.743 52.4332H111.751Z" fill="#717171"/>
<path d="M114.492 52.5969V55.8598C114.492 56.2278 114.558 56.4731 114.689 56.6121C114.821 56.7512 115.059 56.8166 115.403 56.8166H115.961V57.1764H115.338C114.903 57.1764 114.591 57.0783 114.386 56.8738C114.18 56.6694 114.082 56.3341 114.082 55.8598V52.5969H113.335V52.2453H114.082V50.9941H114.492V52.2453H115.961V52.5969H114.492Z" fill="#717171"/>
<path d="M120.911 52.2451L118.03 59.4986H117.611L118.531 57.1844L116.454 52.2533H116.897L118.76 56.7346L120.492 52.2533H120.911V52.2451Z" fill="#717171"/>
<path d="M131.638 52.6867C131.999 53.0465 132.18 53.5781 132.18 54.2895V57.1762H131.778V54.314C131.778 53.7252 131.638 53.2755 131.351 52.9647C131.072 52.654 130.678 52.4986 130.186 52.4986C129.693 52.4986 129.266 52.6703 128.954 53.022C128.642 53.3736 128.487 53.8806 128.487 54.5512V57.1762H128.084V54.314C128.084 53.7252 127.945 53.2755 127.658 52.9647C127.379 52.654 126.985 52.4986 126.492 52.4986C126 52.4986 125.573 52.6703 125.261 53.022C124.949 53.3736 124.793 53.8806 124.793 54.5512V57.1762H124.383V52.2451H124.793V53.3164C124.933 52.932 125.163 52.6376 125.474 52.4414C125.786 52.2451 126.147 52.147 126.558 52.147C127.009 52.147 127.395 52.2615 127.723 52.4986C128.052 52.7358 128.273 53.0792 128.396 53.529C128.511 53.071 128.741 52.7276 129.069 52.4986C129.398 52.2696 129.792 52.147 130.243 52.147C130.809 52.147 131.269 52.3269 131.63 52.6867H131.638Z" fill="#717171"/>
<path d="M133.682 53.3736C133.887 52.9893 134.166 52.6949 134.527 52.4904C134.888 52.286 135.298 52.1797 135.766 52.1797C136.291 52.1797 136.735 52.3105 137.096 52.564C137.457 52.8175 137.711 53.1446 137.859 53.5372V52.2451H138.27V57.1762H137.859V55.876C137.711 56.2767 137.457 56.6038 137.088 56.8654C136.718 57.1189 136.275 57.2498 135.758 57.2498C135.298 57.2498 134.888 57.1435 134.519 56.939C134.158 56.7264 133.87 56.432 133.673 56.0477C133.468 55.6633 133.37 55.2136 133.37 54.7066C133.37 54.1995 133.468 53.7498 133.673 53.3736H133.682ZM137.596 53.5699C137.416 53.2428 137.17 52.9893 136.866 52.8094C136.554 52.6295 136.209 52.5395 135.824 52.5395C135.438 52.5395 135.069 52.6295 134.765 52.8012C134.461 52.9729 134.223 53.2264 134.051 53.5535C133.878 53.8806 133.796 54.265 133.796 54.7147C133.796 55.1645 133.878 55.5489 134.051 55.876C134.223 56.2031 134.461 56.4566 134.765 56.6283C135.069 56.8 135.421 56.89 135.815 56.89C136.209 56.89 136.546 56.8 136.858 56.6201C137.17 56.4402 137.416 56.1867 137.588 55.8596C137.761 55.5325 137.851 55.1481 137.851 54.7066C137.851 54.265 137.761 53.897 137.58 53.5699H137.596Z" fill="#717171"/>
<path d="M143.441 52.6871C143.81 53.0469 143.999 53.5784 143.999 54.2899V57.1765H143.597V54.3144C143.597 53.7256 143.449 53.2758 143.153 52.9651C142.858 52.6543 142.448 52.499 141.939 52.499C141.43 52.499 140.978 52.6707 140.658 53.006C140.338 53.3494 140.182 53.8483 140.182 54.5107V57.1684H139.772V52.2373H140.182V53.284C140.322 52.916 140.552 52.6298 140.88 52.4336C141.208 52.2373 141.578 52.1392 142.004 52.1392C142.595 52.1392 143.071 52.3191 143.441 52.6789V52.6871Z" fill="#717171"/>
<path d="M145.5 53.3736C145.706 52.9893 145.985 52.6949 146.346 52.4904C146.707 52.286 147.117 52.1797 147.585 52.1797C148.11 52.1797 148.554 52.3105 148.915 52.564C149.276 52.8175 149.53 53.1446 149.678 53.5372V52.2451H150.088V57.1762H149.678V55.876C149.53 56.2767 149.276 56.6038 148.906 56.8654C148.537 57.1189 148.094 57.2498 147.577 57.2498C147.117 57.2498 146.707 57.1435 146.338 56.939C145.976 56.7264 145.689 56.432 145.492 56.0477C145.287 55.6633 145.188 55.2136 145.188 54.7066C145.188 54.1995 145.287 53.7498 145.492 53.3736H145.5ZM149.415 53.5699C149.235 53.2428 148.989 52.9893 148.685 52.8094C148.373 52.6295 148.028 52.5395 147.643 52.5395C147.257 52.5395 146.887 52.6295 146.584 52.8012C146.28 52.9729 146.042 53.2264 145.87 53.5535C145.697 53.8806 145.615 54.265 145.615 54.7147C145.615 55.1645 145.697 55.5489 145.87 55.876C146.042 56.2031 146.28 56.4566 146.584 56.6283C146.887 56.8 147.24 56.89 147.634 56.89C148.028 56.89 148.365 56.8 148.677 56.6201C148.989 56.4402 149.235 56.1867 149.407 55.8596C149.579 55.5325 149.67 55.1481 149.67 54.7066C149.67 54.265 149.579 53.897 149.399 53.5699H149.415Z" fill="#717171"/>
<path d="M155.054 52.5562C155.415 52.8097 155.669 53.1286 155.817 53.5212V52.2373H156.227V57.3237C156.227 57.7817 156.129 58.1742 155.924 58.5177C155.727 58.8611 155.456 59.1228 155.111 59.3109C154.775 59.499 154.389 59.5889 153.97 59.5889C153.355 59.5889 152.838 59.4417 152.427 59.1474C152.017 58.853 151.754 58.4523 151.623 57.9452H152.033C152.156 58.3378 152.386 58.6485 152.715 58.8857C153.043 59.1228 153.461 59.2373 153.962 59.2373C154.307 59.2373 154.619 59.1637 154.898 59.0083C155.177 58.853 155.398 58.6322 155.563 58.3459C155.727 58.0597 155.801 57.7245 155.801 57.3319V55.8845C155.653 56.277 155.398 56.6041 155.029 56.8576C154.66 57.1111 154.216 57.242 153.699 57.242C153.24 57.242 152.829 57.1357 152.46 56.9312C152.099 56.7186 151.812 56.4242 151.615 56.0399C151.41 55.6555 151.311 55.2058 151.311 54.6987C151.311 54.1917 151.41 53.742 151.615 53.3658C151.82 52.9815 152.099 52.6871 152.46 52.4826C152.821 52.2782 153.232 52.1719 153.699 52.1719C154.225 52.1719 154.668 52.2945 155.029 52.548L155.054 52.5562ZM155.546 53.5702C155.366 53.2431 155.119 52.9896 154.816 52.8097C154.504 52.6298 154.159 52.5399 153.773 52.5399C153.388 52.5399 153.018 52.6298 152.715 52.8015C152.411 52.9733 152.173 53.2268 152 53.5539C151.828 53.881 151.746 54.2653 151.746 54.7151C151.746 55.1649 151.828 55.5492 152 55.8763C152.173 56.2034 152.411 56.4569 152.715 56.6287C153.018 56.8004 153.371 56.8903 153.765 56.8903C154.159 56.8903 154.496 56.8004 154.807 56.6205C155.119 56.4406 155.366 56.1871 155.538 55.86C155.71 55.5329 155.801 55.1485 155.801 54.7069C155.801 54.2653 155.71 53.8973 155.53 53.5702H155.546Z" fill="#717171"/>
<path d="M162.162 54.8702H157.886C157.894 55.3118 157.992 55.688 158.181 55.9906C158.362 56.2931 158.6 56.5221 158.903 56.6693C159.199 56.8247 159.527 56.8983 159.88 56.8983C160.364 56.8983 160.775 56.7756 161.103 56.5385C161.431 56.3013 161.636 55.9742 161.727 55.5653H162.153C162.055 56.0723 161.809 56.473 161.407 56.7838C161.004 57.0945 160.496 57.2499 159.888 57.2499C159.429 57.2499 159.01 57.1436 158.649 56.9392C158.288 56.7347 158 56.4403 157.795 56.056C157.59 55.6716 157.483 55.2219 157.483 54.7067C157.483 54.1915 157.582 53.7417 157.787 53.3656C157.992 52.9894 158.271 52.695 158.641 52.4906C159.01 52.2861 159.42 52.188 159.888 52.188C160.356 52.188 160.775 52.2861 161.119 52.4906C161.464 52.695 161.735 52.9649 161.915 53.3001C162.096 53.6354 162.186 53.9952 162.186 54.3878C162.186 54.6086 162.186 54.7721 162.17 54.8784L162.162 54.8702ZM161.538 53.4228C161.366 53.1202 161.128 52.8913 160.832 52.7441C160.537 52.5969 160.216 52.5233 159.864 52.5233C159.511 52.5233 159.199 52.5969 158.903 52.7441C158.608 52.8913 158.37 53.1202 158.181 53.4228C157.992 53.7254 157.894 54.0934 157.886 54.535H161.768C161.784 54.1015 161.71 53.7254 161.538 53.4228Z" fill="#717171"/>
<path d="M170.665 52.6867C171.026 53.0465 171.206 53.5781 171.206 54.2895V57.1762H170.804V54.314C170.804 53.7252 170.665 53.2755 170.377 52.9647C170.098 52.654 169.704 52.4986 169.212 52.4986C168.719 52.4986 168.293 52.6703 167.981 53.022C167.669 53.3736 167.513 53.8806 167.513 54.5512V57.1762H167.111V54.314C167.111 53.7252 166.971 53.2755 166.684 52.9647C166.405 52.654 166.011 52.4986 165.518 52.4986C165.026 52.4986 164.599 52.6703 164.287 53.022C163.975 53.3736 163.82 53.8806 163.82 54.5512V57.1762H163.409V52.2451H163.82V53.3164C163.959 52.932 164.189 52.6376 164.501 52.4414C164.813 52.2451 165.174 52.147 165.584 52.147C166.036 52.147 166.421 52.2615 166.75 52.4986C167.078 52.7358 167.3 53.0792 167.423 53.529C167.538 53.071 167.767 52.7276 168.096 52.4986C168.424 52.2696 168.818 52.147 169.269 52.147C169.836 52.147 170.295 52.3269 170.656 52.6867H170.665Z" fill="#717171"/>
<path d="M177.099 54.8702H172.823C172.831 55.3118 172.93 55.688 173.119 55.9906C173.299 56.2931 173.537 56.5221 173.841 56.6693C174.136 56.8247 174.465 56.8983 174.817 56.8983C175.302 56.8983 175.712 56.7756 176.04 56.5385C176.369 56.3013 176.574 55.9742 176.664 55.5653H177.091C176.992 56.0723 176.746 56.473 176.344 56.7838C175.942 57.0945 175.433 57.2499 174.826 57.2499C174.366 57.2499 173.947 57.1436 173.586 56.9392C173.225 56.7347 172.938 56.4403 172.733 56.056C172.528 55.6716 172.421 55.2219 172.421 54.7067C172.421 54.1915 172.519 53.7417 172.725 53.3656C172.93 52.9894 173.209 52.695 173.578 52.4906C173.947 52.2861 174.358 52.188 174.826 52.188C175.294 52.188 175.712 52.2861 176.057 52.4906C176.402 52.695 176.672 52.9649 176.853 53.3001C177.034 53.6354 177.124 53.9952 177.124 54.3878C177.124 54.6086 177.124 54.7721 177.107 54.8784L177.099 54.8702ZM176.475 53.4228C176.303 53.1202 176.065 52.8913 175.77 52.7441C175.474 52.5969 175.154 52.5233 174.801 52.5233C174.448 52.5233 174.136 52.5969 173.841 52.7441C173.545 52.8913 173.307 53.1202 173.119 53.4228C172.93 53.7254 172.831 54.0934 172.823 54.535H176.705C176.722 54.1015 176.648 53.7254 176.475 53.4228Z" fill="#717171"/>
<path d="M182.032 52.6871C182.401 53.0469 182.59 53.5784 182.59 54.2899V57.1765H182.188V54.3144C182.188 53.7256 182.04 53.2758 181.745 52.9651C181.449 52.6543 181.039 52.499 180.53 52.499C180.021 52.499 179.57 52.6707 179.25 53.006C178.93 53.3494 178.774 53.8483 178.774 54.5107V57.1684H178.363V52.2373H178.774V53.284C178.913 52.916 179.143 52.6298 179.471 52.4336C179.8 52.2373 180.169 52.1392 180.596 52.1392C181.187 52.1392 181.663 52.3191 182.032 52.6789V52.6871Z" fill="#717171"/>
<path d="M184.65 52.5969V55.8598C184.65 56.2278 184.716 56.4731 184.847 56.6121C184.979 56.7512 185.217 56.8166 185.561 56.8166H186.12V57.1764H185.496C185.061 57.1764 184.749 57.0783 184.544 56.8738C184.339 56.6694 184.24 56.3341 184.24 55.8598V52.5969H183.493V52.2453H184.24V50.9941H184.65V52.2453H186.12V52.5969H184.65Z" fill="#717171"/>
<path d="M190.067 56.89C189.714 56.6446 189.517 56.3012 189.476 55.8514H189.895C189.927 56.1703 190.075 56.4239 190.338 56.6119C190.601 56.8 190.962 56.89 191.421 56.89C191.799 56.89 192.094 56.7918 192.316 56.6038C192.537 56.4157 192.652 56.1785 192.652 55.9005C192.652 55.7042 192.595 55.5489 192.472 55.4262C192.357 55.3035 192.209 55.2054 192.029 55.14C191.856 55.0746 191.61 55.001 191.306 54.9192C190.945 54.821 190.65 54.7229 190.42 54.633C190.198 54.543 190.001 54.3958 189.845 54.2077C189.689 54.0196 189.607 53.7661 189.607 53.4554C189.607 53.2264 189.681 53.0138 189.821 52.8175C189.96 52.6213 190.157 52.4659 190.404 52.3514C190.65 52.2369 190.937 52.1797 191.249 52.1797C191.766 52.1797 192.185 52.3105 192.505 52.564C192.825 52.8175 192.997 53.1774 193.022 53.6271H192.611C192.595 53.3 192.464 53.0302 192.226 52.8257C191.988 52.6213 191.659 52.515 191.241 52.515C190.888 52.515 190.592 52.6049 190.362 52.7848C190.133 52.9647 190.018 53.1855 190.018 53.4472C190.018 53.6762 190.083 53.8643 190.215 54.0033C190.346 54.1423 190.51 54.2568 190.699 54.3304C190.888 54.404 191.142 54.4858 191.462 54.5675C191.807 54.6575 192.086 54.7474 192.299 54.8374C192.505 54.9274 192.685 55.05 192.833 55.2217C192.981 55.3853 193.055 55.6143 193.055 55.8923C193.055 56.1458 192.989 56.3748 192.849 56.5792C192.71 56.7837 192.513 56.9472 192.267 57.0617C192.02 57.1762 191.741 57.2334 191.429 57.2334C190.88 57.2334 190.428 57.1108 190.075 56.8736L190.067 56.89Z" fill="#717171"/>
<path d="M198.168 52.2451L195.287 59.4986H194.869L195.788 57.1844L193.711 52.2533H194.155L196.018 56.7346L197.75 52.2533H198.168V52.2451Z" fill="#717171"/>
<path d="M199.382 56.89C199.03 56.6446 198.833 56.3012 198.792 55.8514H199.21C199.243 56.1703 199.391 56.4239 199.653 56.6119C199.916 56.8 200.277 56.89 200.737 56.89C201.114 56.89 201.41 56.7918 201.631 56.6038C201.853 56.4157 201.968 56.1785 201.968 55.9005C201.968 55.7042 201.91 55.5489 201.787 55.4262C201.672 55.3035 201.525 55.2054 201.344 55.14C201.172 55.0746 200.925 55.001 200.622 54.9192C200.261 54.821 199.965 54.7229 199.735 54.633C199.514 54.543 199.317 54.3958 199.161 54.2077C199.005 54.0196 198.923 53.7661 198.923 53.4554C198.923 53.2264 198.997 53.0138 199.136 52.8175C199.276 52.6213 199.473 52.4659 199.719 52.3514C199.965 52.2369 200.252 52.1797 200.564 52.1797C201.081 52.1797 201.5 52.3105 201.82 52.564C202.14 52.8175 202.313 53.1774 202.337 53.6271H201.927C201.91 53.3 201.779 53.0302 201.541 52.8257C201.303 52.6213 200.975 52.515 200.556 52.515C200.203 52.515 199.908 52.6049 199.678 52.7848C199.448 52.9647 199.333 53.1855 199.333 53.4472C199.333 53.6762 199.399 53.8643 199.53 54.0033C199.662 54.1423 199.826 54.2568 200.014 54.3304C200.203 54.404 200.458 54.4858 200.778 54.5675C201.122 54.6575 201.401 54.7474 201.615 54.8374C201.82 54.9274 202.001 55.05 202.148 55.2217C202.296 55.3853 202.37 55.6143 202.37 55.8923C202.37 56.1458 202.304 56.3748 202.165 56.5792C202.025 56.7837 201.828 56.9472 201.582 57.0617C201.336 57.1762 201.057 57.2334 200.745 57.2334C200.195 57.2334 199.744 57.1108 199.391 56.8736L199.382 56.89Z" fill="#717171"/>
<path d="M204.225 52.5969V55.8598C204.225 56.2278 204.291 56.4731 204.422 56.6121C204.553 56.7512 204.791 56.8166 205.136 56.8166H205.694V57.1764H205.071C204.636 57.1764 204.324 57.0783 204.118 56.8738C203.913 56.6694 203.815 56.3341 203.815 55.8598V52.5969H203.068V52.2453H203.815V50.9941H204.225V52.2453H205.694V52.5969H204.225Z" fill="#717171"/>
<path d="M211.218 54.8702H206.942C206.95 55.3118 207.048 55.688 207.237 55.9906C207.418 56.2931 207.656 56.5221 207.959 56.6693C208.255 56.8247 208.583 56.8983 208.936 56.8983C209.42 56.8983 209.831 56.7756 210.159 56.5385C210.487 56.3013 210.693 55.9742 210.783 55.5653H211.21C211.111 56.0723 210.865 56.473 210.463 56.7838C210.061 57.0945 209.552 57.2499 208.944 57.2499C208.485 57.2499 208.066 57.1436 207.705 56.9392C207.344 56.7347 207.057 56.4403 206.851 56.056C206.646 55.6716 206.54 55.2219 206.54 54.7067C206.54 54.1915 206.638 53.7417 206.843 53.3656C207.048 52.9894 207.327 52.695 207.697 52.4906C208.066 52.2861 208.477 52.188 208.944 52.188C209.412 52.188 209.831 52.2861 210.175 52.4906C210.52 52.695 210.791 52.9649 210.972 53.3001C211.152 53.6354 211.242 53.9952 211.242 54.3878C211.242 54.6086 211.242 54.7721 211.226 54.8784L211.218 54.8702ZM210.594 53.4228C210.422 53.1202 210.184 52.8913 209.888 52.7441C209.593 52.5969 209.273 52.5233 208.92 52.5233C208.567 52.5233 208.255 52.5969 207.959 52.7441C207.664 52.8913 207.426 53.1202 207.237 53.4228C207.048 53.7254 206.95 54.0934 206.942 54.535H210.824C210.84 54.1015 210.766 53.7254 210.594 53.4228Z" fill="#717171"/>
<path d="M219.712 52.6867C220.074 53.0465 220.254 53.5781 220.254 54.2895V57.1762H219.852V54.314C219.852 53.7252 219.712 53.2755 219.425 52.9647C219.146 52.654 218.752 52.4986 218.26 52.4986C217.767 52.4986 217.34 52.6703 217.029 53.022C216.717 53.3736 216.561 53.8806 216.561 54.5512V57.1762H216.159V54.314C216.159 53.7252 216.019 53.2755 215.732 52.9647C215.453 52.654 215.059 52.4986 214.566 52.4986C214.074 52.4986 213.647 52.6703 213.335 53.022C213.023 53.3736 212.867 53.8806 212.867 54.5512V57.1762H212.457V52.2451H212.867V53.3164C213.007 52.932 213.237 52.6376 213.549 52.4414C213.861 52.2451 214.222 52.147 214.632 52.147C215.083 52.147 215.469 52.2615 215.797 52.4986C216.126 52.7358 216.347 53.0792 216.47 53.529C216.585 53.071 216.815 52.7276 217.144 52.4986C217.472 52.2696 217.866 52.147 218.317 52.147C218.883 52.147 219.343 52.3269 219.704 52.6867H219.712Z" fill="#717171"/>
<path d="M106.926 31.2859C108.091 32.7088 108.674 34.3443 108.674 36.1761C108.674 37.8361 108.256 39.2999 107.41 40.5592C106.565 41.8186 105.35 42.8081 103.758 43.5195C102.166 44.231 100.278 44.5908 98.103 44.5908H84.2651V13.5405H97.5038C99.6788 13.5405 101.558 13.884 103.134 14.5627C104.71 15.2415 105.908 16.1982 106.721 17.4085C107.533 18.627 107.936 20.0008 107.936 21.5464C107.936 23.3536 107.435 24.8665 106.442 26.0849C105.449 27.3034 104.119 28.162 102.461 28.669C104.267 28.9962 105.752 29.8712 106.918 31.2941L106.926 31.2859ZM90.6916 26.3548H96.5764C98.1112 26.3548 99.2931 26.0195 100.114 25.3571C100.943 24.6866 101.353 23.7298 101.353 22.4868C101.353 21.2438 100.943 20.2789 100.114 19.5919C99.2849 18.9132 98.103 18.5697 96.5764 18.5697H90.6916V26.3548ZM100.836 38.4494C101.706 37.738 102.149 36.7321 102.149 35.4237C102.149 34.1153 101.69 33.0441 100.77 32.2917C99.8512 31.5394 98.6118 31.155 97.0442 31.155H90.6998V39.5207H97.1837C98.7432 39.5207 99.9661 39.1691 100.836 38.4494Z" fill="#00479F"/>
<path d="M123.497 20.7039C124.827 19.9598 126.353 19.5918 128.069 19.5918V26.1339H126.37C124.351 26.1339 122.824 26.5918 121.798 27.5159C120.772 28.4318 120.255 30.0346 120.255 32.3243V44.5988H113.82V19.9516H120.255V23.7787C121.084 22.4703 122.159 21.4481 123.497 20.7121V20.7039Z" fill="#00479F"/>
<path d="M132.279 25.5536C133.305 23.6237 134.7 22.1436 136.465 21.105C138.229 20.0665 140.199 19.5513 142.374 19.5513C144.27 19.5513 145.936 19.9193 147.364 20.6634C148.792 21.4076 149.933 22.3398 150.787 23.4683V19.952H157.271V44.5992H150.787V40.9929C149.958 42.1459 148.817 43.1027 147.364 43.8632C145.912 44.6237 144.229 44.9999 142.333 44.9999C140.191 44.9999 138.238 44.4684 136.473 43.3971C134.708 42.3258 133.313 40.8212 132.287 38.8831C131.261 36.9368 130.744 34.7043 130.744 32.1856C130.744 29.6669 131.253 27.4835 132.287 25.5536H132.279ZM149.859 28.3749C149.244 27.2954 148.423 26.4613 147.381 25.8807C146.338 25.3001 145.222 25.0139 144.024 25.0139C142.826 25.0139 141.726 25.2919 140.716 25.8562C139.707 26.4204 138.886 27.2464 138.254 28.3258C137.622 29.4053 137.31 30.6891 137.31 32.1775C137.31 33.6658 137.622 34.9578 138.254 36.07C138.878 37.1821 139.707 38.0326 140.741 38.6296C141.767 39.2265 142.858 39.5209 144.024 39.5209C145.189 39.5209 146.338 39.2347 147.381 38.6541C148.423 38.0735 149.252 37.2476 149.859 36.1599C150.475 35.0805 150.779 33.7803 150.779 32.2674C150.779 30.7546 150.475 29.4543 149.859 28.3749Z" fill="#00479F"/>
<path d="M187.606 19.9437V44.5909H181.122V41.4753C180.293 42.5384 179.218 43.3807 177.88 43.9858C176.55 44.5909 175.098 44.9017 173.538 44.9017C171.544 44.9017 169.779 44.4928 168.253 43.6751C166.718 42.8573 165.52 41.6552 164.641 40.0687C163.763 38.4823 163.328 36.5933 163.328 34.3935V19.9355H169.763V33.5021C169.763 35.4566 170.272 36.9613 171.281 38.0162C172.291 39.0711 173.67 39.5944 175.418 39.5944C177.166 39.5944 178.586 39.0711 179.604 38.0162C180.613 36.9613 181.122 35.4566 181.122 33.5021V19.9355H187.606V19.9437Z" fill="#00479F"/>
<path d="M215.421 22.3725C217.292 24.2288 218.228 26.813 218.228 30.1331V44.591H211.793V30.9754C211.793 29.0209 211.285 27.5162 210.275 26.4613C209.265 25.4064 207.887 24.8831 206.138 24.8831C204.39 24.8831 202.954 25.4064 201.936 26.4613C200.91 27.5162 200.393 29.0209 200.393 30.9754V44.591H193.958V19.9438H200.393V23.0104C201.247 21.9391 202.347 21.105 203.676 20.4999C205.006 19.8947 206.475 19.584 208.067 19.584C211.104 19.584 213.55 20.5081 215.421 22.3644V22.3725Z" fill="#00479F"/>
<path d="M76.4679 24.8177L67.1606 55.7617C66.225 58.8937 62.9009 61.4451 59.741 61.4451H26.6156C23.4557 61.4451 21.6747 58.8937 22.6103 55.7617L31.9176 24.8177C32.8697 21.6857 36.1937 19.1343 39.3372 19.1343H72.4791C75.6225 19.1343 77.42 21.6857 76.4679 24.8177Z" fill="#00479F"/>
<path d="M72.684 14.7592C72.6676 14.5384 72.6183 14.3339 72.5691 14.154C72.487 13.9169 72.3967 13.6797 72.2818 13.4589C72.2162 13.3036 72.1095 13.14 72.011 13.001C71.9289 12.862 71.8222 12.7475 71.7237 12.6494C70.9932 11.8398 69.8688 11.3491 68.4818 11.3491H35.3481C35.0937 11.3491 34.8392 11.3655 34.5848 11.3982C34.5027 11.4145 34.396 11.4145 34.314 11.4473C34.0595 11.48 33.8215 11.529 33.5671 11.6026C33.247 11.7008 32.9187 11.8234 32.5986 11.9788C32.3277 12.0933 32.0733 12.2159 31.8025 12.3713C31.5644 12.5103 31.3264 12.6575 31.1048 12.8129C31.072 12.8293 31.0392 12.8456 31.0227 12.8783C30.7847 13.0337 30.5631 13.2136 30.3579 13.4017C30.3579 13.4017 30.347 13.4071 30.3251 13.418C30.1199 13.6061 29.9147 13.8106 29.7342 14.0068C29.4797 14.2603 29.2581 14.5302 29.0529 14.8164C28.9134 15.0209 28.7657 15.2253 28.6426 15.4461C28.503 15.6832 28.3717 15.9367 28.2486 16.1902C28.2322 16.2066 28.2158 16.2393 28.2158 16.272C28.1009 16.5255 28.0106 16.779 27.9285 17.0325L27.9121 17.0489L21.5759 38.1143L18.6212 47.9601C18.0631 49.8246 18.4489 51.4601 19.5405 52.5151C19.6225 52.5968 19.7292 52.7031 19.8277 52.7686C19.9262 52.8503 20.0329 52.9239 20.1478 53.0057C20.3366 53.1202 20.5254 53.2265 20.7388 53.3083C21.2804 53.5454 21.9288 53.6599 22.6265 53.6599H55.7519C56.0064 53.6599 56.2608 53.6436 56.5152 53.6109C56.8517 53.5781 57.1964 53.4964 57.533 53.4064C57.9269 53.2919 58.2963 53.1529 58.6738 52.9812C59.1006 52.7767 59.5192 52.5396 59.9295 52.2534C60.0444 52.1716 60.184 52.0816 60.3071 51.9835C61.3576 51.1739 62.2441 50.119 62.8022 48.9415C62.8514 48.8433 62.9007 48.7207 62.9417 48.6062C63.0402 48.4017 63.1141 48.1809 63.1797 47.9601L72.487 17.0325C72.6594 16.4601 72.7414 15.9122 72.7414 15.3888C72.7414 15.1681 72.725 14.9636 72.6922 14.7592H72.684Z" fill="#126FB7"/>
<path d="M67.0619 6.97401C67.0455 6.75322 66.9963 6.54878 66.947 6.36887C66.8649 6.13172 66.7747 5.89457 66.6598 5.67378C66.5941 5.51841 66.4874 5.35485 66.3889 5.21584C66.3068 5.07682 66.2001 4.96233 66.1016 4.8642C65.3712 4.05462 64.2467 3.56396 62.8597 3.56396H29.726C29.4716 3.56396 29.2172 3.58032 28.9627 3.61303C28.8807 3.62939 28.774 3.62939 28.6919 3.6621C28.4374 3.69481 28.1994 3.74387 27.945 3.81747C27.6249 3.9156 27.2966 4.03826 26.9765 4.19364C26.7057 4.30812 26.4512 4.43079 26.1804 4.58616C25.9424 4.72518 25.7044 4.87238 25.4827 5.02775C25.4499 5.04411 25.4171 5.06046 25.4007 5.09317C25.1627 5.24855 24.9411 5.42845 24.7359 5.61654C24.7359 5.61654 24.7249 5.62199 24.703 5.63289C24.4979 5.82098 24.2927 6.02542 24.1121 6.22168C23.8577 6.47518 23.6361 6.74504 23.4309 7.03126C23.2913 7.2357 23.1436 7.44014 23.0205 7.66093C22.881 7.89808 22.7497 8.15159 22.6265 8.40509C22.6101 8.42145 22.5937 8.45416 22.5937 8.48687C22.4788 8.74037 22.3885 8.99388 22.3064 9.24738L22.29 9.26374L15.9538 30.3292L12.9991 40.1668C12.441 42.0313 12.8268 43.6668 13.9184 44.7217C14.0005 44.8035 14.1072 44.9098 14.2057 44.9752C14.3041 45.057 14.4108 45.1306 14.5257 45.2124C14.7145 45.3269 14.9033 45.4332 15.1167 45.5149C15.6584 45.7521 16.3068 45.8666 17.0044 45.8666H50.1299C50.3843 45.8666 50.6387 45.8502 50.8932 45.8175C51.2297 45.7848 51.5744 45.703 51.9109 45.6131C52.3048 45.4986 52.6742 45.3596 53.0517 45.1878C53.4785 44.9834 53.8971 44.7463 54.3075 44.46C54.4224 44.3783 54.5619 44.2883 54.685 44.1902C55.7356 43.3806 56.622 42.3257 57.1801 41.1481C57.2293 41.05 57.2786 40.9273 57.3196 40.8128C57.4181 40.6084 57.492 40.3876 57.5576 40.1668L66.8649 9.2392C67.0373 8.66677 67.1194 8.11888 67.1194 7.59551C67.1194 7.37472 67.103 7.17028 67.0701 6.96584L67.0619 6.97401Z" fill="#4ED6FF"/>
</svg>
