<svg width="32" height="32" viewBox="0 0 32 32" fill="none" xmlns="http://www.w3.org/2000/svg">
<path d="M25.3332 5.33317H22.6665V3.99984C22.6665 3.64622 22.526 3.30708 22.276 3.05703C22.0259 2.80698 21.6868 2.6665 21.3332 2.6665C20.9795 2.6665 20.6404 2.80698 20.3904 3.05703C20.1403 3.30708 19.9998 3.64622 19.9998 3.99984V5.33317H11.9998V3.99984C11.9998 3.64622 11.8594 3.30708 11.6093 3.05703C11.3593 2.80698 11.0201 2.6665 10.6665 2.6665C10.3129 2.6665 9.97374 2.80698 9.72369 3.05703C9.47365 3.30708 9.33317 3.64622 9.33317 3.99984V5.33317H6.6665C5.60564 5.33317 4.58822 5.7546 3.83808 6.50474C3.08793 7.25489 2.6665 8.2723 2.6665 9.33317V25.3332C2.6665 26.394 3.08793 27.4115 3.83808 28.1616C4.58822 28.9117 5.60564 29.3332 6.6665 29.3332H25.3332C26.394 29.3332 27.4115 28.9117 28.1616 28.1616C28.9117 27.4115 29.3332 26.394 29.3332 25.3332V9.33317C29.3332 8.2723 28.9117 7.25489 28.1616 6.50474C27.4115 5.7546 26.394 5.33317 25.3332 5.33317ZM26.6665 25.3332C26.6665 25.6868 26.526 26.0259 26.276 26.276C26.0259 26.526 25.6868 26.6665 25.3332 26.6665H6.6665C6.31288 26.6665 5.97374 26.526 5.7237 26.276C5.47365 26.0259 5.33317 25.6868 5.33317 25.3332V15.9998H26.6665V25.3332ZM26.6665 13.3332H5.33317V9.33317C5.33317 8.97955 5.47365 8.64041 5.7237 8.39036C5.97374 8.14031 6.31288 7.99984 6.6665 7.99984H9.33317V9.33317C9.33317 9.68679 9.47365 10.0259 9.72369 10.276C9.97374 10.526 10.3129 10.6665 10.6665 10.6665C11.0201 10.6665 11.3593 10.526 11.6093 10.276C11.8594 10.0259 11.9998 9.68679 11.9998 9.33317V7.99984H19.9998V9.33317C19.9998 9.68679 20.1403 10.0259 20.3904 10.276C20.6404 10.526 20.9795 10.6665 21.3332 10.6665C21.6868 10.6665 22.0259 10.526 22.276 10.276C22.526 10.0259 22.6665 9.68679 22.6665 9.33317V7.99984H25.3332C25.6868 7.99984 26.0259 8.14031 26.276 8.39036C26.526 8.64041 26.6665 8.97955 26.6665 9.33317V13.3332Z" fill="white"/>
</svg>
